<svg xmlns="http://www.w3.org/2000/svg" width="254.93" height="35" viewBox="0 0 254.93 35"><rect class="svg__rect" x="0" y="0" width="115.31" height="35" fill="#31C4F3"/><rect class="svg__rect" x="113.31" y="0" width="141.62" height="35" fill="#389AD5"/><path class="svg__text" d="M15.69 22L14.22 22L14.22 13.47L16.14 13.47L18.60 20.01L21.06 13.47L22.97 13.47L22.97 22L21.49 22L21.49 19.19L21.64 15.43L19.12 22L18.06 22L15.55 15.43L15.69 19.19L15.69 22ZM28.49 22L26.95 22L30.17 13.47L31.50 13.47L34.73 22L33.18 22L32.49 20.01L29.18 20.01L28.49 22ZM30.83 15.28L29.60 18.82L32.07 18.82L30.83 15.28ZM41.14 22L38.69 22L38.69 13.47L41.21 13.47Q42.34 13.47 43.21 13.97Q44.09 14.48 44.57 15.40Q45.05 16.33 45.05 17.52L45.05 17.52L45.05 17.95Q45.05 19.16 44.57 20.08Q44.08 21.00 43.19 21.50Q42.30 22 41.14 22L41.14 22ZM40.17 14.66L40.17 20.82L41.14 20.82Q42.30 20.82 42.93 20.09Q43.55 19.36 43.56 17.99L43.56 17.99L43.56 17.52Q43.56 16.13 42.96 15.40Q42.35 14.66 41.21 14.66L41.21 14.66L40.17 14.66ZM55.09 22L49.51 22L49.51 13.47L55.05 13.47L55.05 14.66L51.00 14.66L51.00 17.02L54.50 17.02L54.50 18.19L51.00 18.19L51.00 20.82L55.09 20.82L55.09 22ZM66.65 22L64.68 13.47L66.15 13.47L67.47 19.88L69.10 13.47L70.34 13.47L71.96 19.89L73.27 13.47L74.74 13.47L72.77 22L71.35 22L69.73 15.77L68.07 22L66.65 22ZM80.38 22L78.90 22L78.90 13.47L80.38 13.47L80.38 22ZM86.87 14.66L84.23 14.66L84.23 13.47L91.00 13.47L91.00 14.66L88.34 14.66L88.34 22L86.87 22L86.87 14.66ZM96.24 22L94.75 22L94.75 13.47L96.24 13.47L96.24 17.02L100.05 17.02L100.05 13.47L101.53 13.47L101.53 22L100.05 22L100.05 18.21L96.24 18.21L96.24 22Z" fill="#FFFFFF"/><path class="svg__text" d="M129.88 22L127.50 22L127.50 13.60L129.88 13.60L129.88 16.76L133.12 16.76L133.12 13.60L135.49 13.60L135.49 22L133.12 22L133.12 18.72L129.88 18.72L129.88 22ZM142.45 15.48L139.86 15.48L139.86 13.60L147.38 13.60L147.38 15.48L144.82 15.48L144.82 22L142.45 22L142.45 15.48ZM153.95 22L151.76 22L151.76 13.60L153.71 13.60L156.67 18.45L159.55 13.60L161.50 13.60L161.52 22L159.34 22L159.32 17.55L157.16 21.17L156.10 21.17L153.95 17.67L153.95 22ZM173.07 22L166.69 22L166.69 13.60L169.06 13.60L169.06 20.11L173.07 20.11L173.07 22ZM184.03 17.80L184.03 17.80Q184.03 16.54 184.63 15.54Q185.23 14.55 186.28 13.99Q187.33 13.43 188.65 13.43L188.65 13.43Q189.81 13.43 190.73 13.84Q191.65 14.25 192.27 15.02L192.27 15.02L190.76 16.39Q189.94 15.40 188.78 15.40L188.78 15.40Q188.09 15.40 187.56 15.70Q187.02 16 186.73 16.54Q186.43 17.09 186.43 17.80L186.43 17.80Q186.43 18.51 186.73 19.05Q187.02 19.60 187.56 19.90Q188.09 20.20 188.78 20.20L188.78 20.20Q189.94 20.20 190.76 19.22L190.76 19.22L192.27 20.58Q191.66 21.35 190.73 21.76Q189.81 22.17 188.65 22.17L188.65 22.17Q187.33 22.17 186.28 21.61Q185.23 21.05 184.63 20.05Q184.03 19.06 184.03 17.80ZM196.22 21.24L196.22 21.24L197.00 19.49Q197.56 19.86 198.30 20.09Q199.05 20.32 199.77 20.32L199.77 20.32Q201.13 20.32 201.14 19.64L201.14 19.64Q201.14 19.28 200.75 19.11Q200.36 18.93 199.49 18.74L199.49 18.74Q198.54 18.53 197.91 18.30Q197.27 18.06 196.82 17.55Q196.36 17.03 196.36 16.16L196.36 16.16Q196.36 15.39 196.78 14.77Q197.20 14.15 198.04 13.79Q198.87 13.43 200.08 13.43L200.08 13.43Q200.90 13.43 201.71 13.62Q202.52 13.80 203.13 14.17L203.13 14.17L202.40 15.93Q201.20 15.28 200.07 15.28L200.07 15.28Q199.36 15.28 199.03 15.49Q198.71 15.70 198.71 16.04L198.71 16.04Q198.71 16.37 199.10 16.54Q199.48 16.71 200.33 16.89L200.33 16.89Q201.29 17.10 201.92 17.33Q202.55 17.56 203.01 18.07Q203.48 18.58 203.48 19.46L203.48 19.46Q203.48 20.21 203.06 20.83Q202.64 21.44 201.80 21.80Q200.96 22.17 199.76 22.17L199.76 22.17Q198.74 22.17 197.78 21.92Q196.81 21.67 196.22 21.24ZM207.47 21.24L207.47 21.24L208.25 19.49Q208.81 19.86 209.55 20.09Q210.30 20.32 211.02 20.32L211.02 20.32Q212.38 20.32 212.39 19.64L212.39 19.64Q212.39 19.28 212.00 19.11Q211.61 18.93 210.74 18.74L210.74 18.74Q209.79 18.53 209.16 18.30Q208.52 18.06 208.07 17.55Q207.61 17.03 207.61 16.16L207.61 16.16Q207.61 15.39 208.03 14.77Q208.45 14.15 209.29 13.79Q210.12 13.43 211.33 13.43L211.33 13.43Q212.15 13.43 212.96 13.62Q213.77 13.80 214.38 14.17L214.38 14.17L213.65 15.93Q212.45 15.28 211.32 15.28L211.32 15.28Q210.61 15.28 210.28 15.49Q209.96 15.70 209.96 16.04L209.96 16.04Q209.96 16.37 210.35 16.54Q210.73 16.71 211.58 16.89L211.58 16.89Q212.54 17.10 213.17 17.33Q213.80 17.56 214.26 18.07Q214.73 18.58 214.73 19.46L214.73 19.46Q214.73 20.21 214.31 20.83Q213.89 21.44 213.05 21.80Q212.21 22.17 211.01 22.17L211.01 22.17Q209.99 22.17 209.03 21.92Q208.06 21.67 207.47 21.24ZM225.20 20.93L225.20 20.93L226.49 19.40Q227.16 20.27 227.93 20.27L227.93 20.27Q227.94 20.27 227.95 20.27L227.95 20.27Q228.46 20.27 228.73 19.96Q229.00 19.65 229.00 19.05L229.00 19.05L229.00 15.44L226.10 15.44L226.10 13.60L231.36 13.60L231.36 18.91Q231.36 20.54 230.53 21.36Q229.71 22.17 228.12 22.17L228.12 22.17Q227.19 22.17 226.43 21.85Q225.68 21.53 225.20 20.93ZM235.86 21.24L235.86 21.24L236.63 19.49Q237.20 19.86 237.94 20.09Q238.69 20.32 239.41 20.32L239.41 20.32Q240.77 20.32 240.78 19.64L240.78 19.64Q240.78 19.28 240.39 19.11Q240.00 18.93 239.13 18.74L239.13 18.74Q238.18 18.53 237.55 18.30Q236.91 18.06 236.46 17.55Q236.00 17.03 236.00 16.16L236.00 16.16Q236.00 15.39 236.42 14.77Q236.84 14.15 237.67 13.79Q238.51 13.43 239.72 13.43L239.72 13.43Q240.54 13.43 241.35 13.62Q242.15 13.80 242.77 14.17L242.77 14.17L242.04 15.93Q240.84 15.28 239.70 15.28L239.70 15.28Q239.00 15.28 238.67 15.49Q238.35 15.70 238.35 16.04L238.35 16.04Q238.35 16.37 238.74 16.54Q239.12 16.71 239.97 16.89L239.97 16.89Q240.93 17.10 241.56 17.33Q242.19 17.56 242.65 18.07Q243.12 18.58 243.12 19.46L243.12 19.46Q243.12 20.21 242.70 20.83Q242.28 21.44 241.44 21.80Q240.60 22.17 239.39 22.17L239.39 22.17Q238.37 22.17 237.41 21.92Q236.45 21.67 235.86 21.24Z" fill="#FFFFFF" x="126.31"/></svg>